<svg width="21" height="21" viewBox="0 0 21 21" xmlns="http://www.w3.org/2000/svg"><title>C39972F4-CF4B-4D75-99FF-AD89831AC931</title><path d="M3 11c0 4.42 3.58 8 8 8s8-3.58 8-8-3.58-8-8-8-8 3.58-8 8zm2.69-4.65c-.69.37-.44-.26-.16-.53l-.04-.21c.84-.73 2.8-1.34 3.84-1.24-.1-.4-.27-.26-.58-.43.45.01.92.03 1.37-.04.1 0 .54.74.96.65l.49-.33c.31 0 .61.09.92.15-.01.48-.53.52-.8.94v.12l.86.59c.48-.21.34.46.41.55.31.34.6-.56.67-.77l-.36-.58.67.15.45.49c.15.01.34 0 .47-.08.13.31.42.61.71.77.09.61.9 1.02-.06.84L15.49 7h-.78c.24.04.38.8.49 1h-.71c.07.43-.78.43-.84.8 0 .46-.26.18-.55.47l.14.73-1.36-.63c-.9.24-.82.78-.39 1.47l.29-.17c-.02-.03.2-.2.22-.04v.57l1 .19V12l.53.18-.73-.12c-.35-.93-2.72-.79-2.56-1.61-.16-.17-1.13-1.27-1.32-1.18C7.2 8.32 9.17 6.75 7.18 6H5.84l-.04.12-.11.23zm9.15 10.34c0 .07 0 .33-.09.38-.15.07-.34-.05-.49.04-.09.06-.13.16-.2.24-.21.24-.44.45-.65.69-.03.04-.06.11-.05.17 0 0 .03.05.01.05-.16.04-.37-.21-.39-.36-.03-.19.14-.31.2-.48.17-.48.4-1.39.32-1.9-.12-.73-.71-.32-.82-1.2-.03-.17-.06-.38.02-.55.08-.17.27-.24.34-.41.16-.37-.21-.87.4-.93l.06-.01h.12l.08-.02c.08-.03.12-.04.2-.04.09 0 .18.03.27.04.21.03.42 0 .6.12.35.21.72.42 1.03.71l-.18.29c.02-.04.06-.05.11-.04.39.04 1.05.09 1.31.48.1.39-.66.82-.68 1.29 0 .06.07.15.01.2-.15.12-.37.12-.52.24-.38.31-.46.93-1.01 1z" fill="#5A606B" fill-rule="evenodd"/></svg>