<svg xmlns="http://www.w3.org/2000/svg" width="54" height="26" viewBox="0 0 54 26"><path d="M1.682 5.399c0-.552.439-1 1.003-1h20.994a1 1 0 0 1 1.003 1c0 .552-.439 1-1.003 1H2.685a1 1 0 0 1-1.003-1zm0 7c0-.552.439-1 1.003-1h20.994a1 1 0 0 1 1.003 1c0 .552-.439 1-1.003 1H2.685a1 1 0 0 1-1.003-1zm0 7c0-.552.439-1 1.003-1h20.994a1 1 0 0 1 1.003 1c0 .552-.439 1-1.003 1H2.685a1 1 0 0 1-1.003-1z" fill="#458fc9"/><path d="M29.155 5.399c0-.552.439-1 1.003-1h20.994a1 1 0 0 1 1.003 1c0 .552-.439 1-1.003 1H30.158a1 1 0 0 1-1.003-1zm0 7c0-.552.439-1 1.003-1h20.994a1 1 0 0 1 1.003 1c0 .552-.439 1-1.003 1H30.158a1 1 0 0 1-1.003-1zm0 7c0-.552.439-1 1.003-1h20.994a1 1 0 0 1 1.003 1c0 .552-.439 1-1.003 1H30.158a1 1 0 0 1-1.003-1z" fill="#fff"/></svg>