<svg xmlns="http://www.w3.org/2000/svg" width="135" height="24" viewBox="0 0 135 24"><switch><path d="M17.4 1.5l-5 14.1h-.1l-5-14.1H0V23h4.8V6.6h.1l5.5 16.5h3.7l5.6-16.5h.1v16.5h4.8V1.5h-7.2zm18.5 15.1h-1.3c-.5 0-1 .1-1.5.3-.5.1-.9.4-1.2.6-.3.3-.5.7-.5 1.2s.2 1 .7 1.2c.5.3 1 .4 1.5.4s.9-.1 1.3-.2.8-.3 1.1-.5c.3-.2.6-.5.8-.9.2-.3.3-.8.3-1.2v-1c-.1.1-1.2.1-1.2.1zm1.1 4.6h-.1c-.5.8-1.2 1.4-2 1.7-.9.3-1.8.5-2.7.5-.7 0-1.4-.1-2-.3-.6-.2-1.2-.5-1.7-.9s-.9-.9-1.2-1.4c-.3-.6-.4-1.2-.4-2 0-.9.2-1.6.5-2.2.3-.6.8-1.1 1.3-1.5.6-.4 1.2-.7 1.9-.9.7-.2 1.4-.4 2.2-.5.7-.1 1.5-.2 2.2-.2h2.1c0-.8-.3-1.5-.9-1.9-.6-.5-1.3-.7-2.1-.7-.7 0-1.4.2-2.1.5-.6.3-1.2.8-1.7 1.3l-2.5-2.5c.9-.8 1.9-1.4 3-1.8 1.1-.4 2.4-.6 3.6-.6 1.4 0 2.5.2 3.3.5.9.3 1.6.8 2.1 1.5s.9 1.4 1.1 2.4c.2.9.3 2 .3 3.3V23H37v-1.8zm7.2-12.9h4.6v2.4h.1c.5-.9 1.1-1.6 1.8-2.1s1.5-.7 2.6-.7h.8c.3 0 .5.1.7.1v4.2c-.3-.1-.6-.2-1-.2-.3-.1-.7-.1-1-.1-.9 0-1.6.1-2.1.4-.5.2-.9.6-1.2 1-.3.4-.5 1-.5 1.6-.1.6-.1 1.3-.1 2v6.2h-4.6c-.1 0-.1-14.8-.1-14.8zM67.6 12h-4.1v4.9c0 .4 0 .8.1 1.1 0 .3.1.6.3.9.1.2.4.4.7.6.3.1.7.2 1.2.2.2 0 .6 0 1-.1.4 0 .7-.2.9-.3v3.8c-.5.2-1.1.3-1.6.4-.6.1-1.1.1-1.6.1-.8 0-1.5-.1-2.1-.2-.6-.1-1.2-.4-1.7-.8s-.9-.8-1.2-1.4c-.3-.6-.4-1.3-.4-2.1v-7h-2.9V8.3h3V3.9h4.6v4.4h4.1l-.3 3.7zM70 23.1h4.6V8.3H70v14.8zm-.4-19.5A2.732 2.732 0 0 1 72.3.9c.7 0 1.4.3 1.9.8s.8 1.1.8 1.9a2.732 2.732 0 0 1-2.7 2.7c-.7 0-1.4-.3-1.9-.8s-.8-1.1-.8-1.9zm8.3 4.7h4.4v2h.1c.1-.3.3-.6.6-.9.3-.3.6-.5 1-.8.4-.2.8-.4 1.3-.5.5-.1 1-.2 1.5-.2 1.2 0 2.1.2 2.8.5.7.4 1.3.9 1.7 1.5s.7 1.4.8 2.2c.1.9.2 1.8.2 2.8v8.2h-4.6v-8.5c0-.4-.1-.9-.3-1.3-.1-.4-.4-.7-.7-.9-.3-.2-.8-.4-1.4-.4-.6 0-1.1.1-1.4.3-.4.2-.6.5-.8.9-.2.4-.3.8-.4 1.2-.1.4-.1.9-.1 1.4v7.4H78l-.1-14.9zm17.7 14.8h4.6V8.3h-4.6v14.8zm-.3-19.5c0-.7.3-1.4.8-1.9.4-.4 1.1-.7 1.8-.7s1.4.3 1.9.8.8 1.1.8 1.9a2.732 2.732 0 0 1-2.7 2.7c-.7 0-1.4-.3-1.9-.8-.5-.6-.7-1.2-.7-2zm8.3-3.5h4.6v14.1l5.1-5.8h5.7l-6 6.6 6.1 8.1h-5.8l-5-7.5h-.1v7.5h-4.6V.1zm25.3 16.5h-1.3c-.5 0-1 .1-1.5.3-.5.1-.9.4-1.2.6s-.5.7-.5 1.2.2 1 .7 1.2c.5.3 1 .4 1.5.4s.9-.1 1.3-.2.8-.3 1.1-.5c.3-.2.6-.5.8-.9.2-.3.3-.8.3-1.2v-1c-.1.1-1.2.1-1.2.1zm1.1 4.6h-.1c-.5.8-1.2 1.4-2 1.7-.9.3-1.8.5-2.7.5-.7 0-1.4-.1-2-.3-.6-.2-1.2-.5-1.7-.9s-.9-.9-1.2-1.4c-.3-.6-.4-1.2-.4-2 0-.9.2-1.6.5-2.2.3-.6.8-1.1 1.3-1.5.6-.4 1.2-.7 1.9-.9.7-.2 1.4-.4 2.2-.5.7-.1 1.5-.2 2.2-.2h2.1c0-.8-.3-1.5-.9-1.9-.6-.5-1.3-.7-2.1-.7s-1.4.2-2.1.5c-.6.3-1.2.8-1.7 1.3l-2.5-2.5c.9-.8 1.9-1.4 3-1.8 1.1-.4 2.4-.6 3.6-.6 1.4 0 2.5.2 3.3.5.9.3 1.6.8 2.1 1.5s.9 1.4 1.1 2.4c.2.9.3 2 .3 3.3V23H130v-1.8z"/></switch></svg>